<svg xmlns="http://www.w3.org/2000/svg" width="1024" height="1024" viewBox="0 0 1024 1024">
  <defs>
    <linearGradient id="bg" x1="120" y1="80" x2="900" y2="940" gradientUnits="userSpaceOnUse">
      <stop offset="0" stop-color="#ff3c82"/>
      <stop offset="0.48" stop-color="#9b4dff"/>
      <stop offset="1" stop-color="#3845d6"/>
    </linearGradient>
    <filter id="shadow" x="-20%" y="-20%" width="140%" height="140%">
      <feDropShadow dx="0" dy="28" stdDeviation="32" flood-color="#26105c" flood-opacity="0.42"/>
    </filter>
  </defs>
  <rect x="48" y="48" width="928" height="928" rx="224" fill="url(#bg)"/>
  <circle cx="512" cy="512" r="282" fill="#ffffff" fill-opacity="0.15"/>
  <path d="M335 579c44 0 70-25 70-70V337c0-27 15-45 40-50l210-44c30-6 50 11 50 41v235c0 87-53 150-132 150-54 0-93-30-93-75 0-47 43-86 99-86 25 0 47 7 64 19V370l-174 36v176c0 88-52 151-132 151-54 0-94-30-94-75 0-47 43-79 92-79z" fill="#fff" filter="url(#shadow)"/>
</svg>
